<svg xmlns="http://www.w3.org/2000/svg" viewBox="0 0 1200 400" width="1200" height="400">
  <defs>
    <linearGradient id="sky" x1="0%" y1="0%" x2="0%" y2="100%">
      <stop offset="0%" style="stop-color:#87CEEB;stop-opacity:1" />
      <stop offset="100%" style="stop-color:#E0F6FF;stop-opacity:1" />
    </linearGradient>
  </defs>
  <rect width="1200" height="400" fill="url(#sky)"/>
  <rect y="300" width="1200" height="100" fill="#90EE90"/>
  <ellipse cx="150" cy="60" rx="60" ry="30" fill="white" opacity="0.8"/>
  <rect x="150" y="170" width="240" height="160" fill="#CD853F"/>
  <polygon points="150,170 270,70 390,170" fill="#8B4513"/>
  <rect x="180" y="210" width="40" height="40" fill="#87CEEB"/>
  <rect x="250" y="210" width="40" height="40" fill="#87CEEB"/>
  <rect x="180" y="280" width="40" height="40" fill="#87CEEB"/>
  <rect x="250" y="280" width="40" height="40" fill="#87CEEB"/>
  <rect x="500" y="150" width="300" height="180" fill="#B8860B"/>
  <polygon points="500,150 650,50 800,150" fill="#8B4513"/>
  <rect x="540" y="200" width="45" height="45" fill="#87CEEB"/>
  <rect x="630" y="200" width="45" height="45" fill="#87CEEB"/>
  <rect x="720" y="200" width="45" height="45" fill="#87CEEB"/>
  <rect x="540" y="300" width="45" height="45" fill="#87CEEB"/>
  <rect x="630" y="300" width="45" height="45" fill="#87CEEB"/>
  <rect x="720" y="300" width="45" height="45" fill="#87CEEB"/>
  <rect x="850" y="180" width="280" height="150" fill="#A0522D"/>
  <polygon points="850,180 990,80 1130,180" fill="#654321"/>
  <rect x="890" y="220" width="40" height="40" fill="#87CEEB"/>
  <rect x="970" y="220" width="40" height="40" fill="#87CEEB"/>
  <rect x="1050" y="220" width="40" height="40" fill="#87CEEB"/>
  <rect x="890" y="290" width="40" height="40" fill="#87CEEB"/>
  <rect x="1050" y="290" width="40" height="40" fill="#87CEEB"/>
  <rect y="340" width="1200" height="60" fill="#696969"/>
  <line x1="0" y1="370" x2="1200" y2="370" stroke="#FFD700" stroke-width="3" stroke-dasharray="20,10"/>
</svg>
