<svg xmlns="http://www.w3.org/2000/svg" viewBox="0 0 640 440" width="640" height="440" role="img" aria-label="Profiling Care Bed">
  <defs>
    <linearGradient id="g" x1="0" y1="0" x2="1" y2="1">
      <stop offset="0" stop-color="#34D399"/><stop offset="1" stop-color="#059669"/>
    </linearGradient>
    <radialGradient id="spot" cx="0.5" cy="0.42" r="0.6">
      <stop offset="0" stop-color="#ffffff" stop-opacity="0.22"/><stop offset="1" stop-color="#ffffff" stop-opacity="0"/>
    </radialGradient>
  </defs>
  <rect width="640" height="440" fill="url(#g)"/>
  <rect width="640" height="440" fill="url(#spot)"/>
  <g opacity="0.10" fill="none" stroke="#fff" stroke-width="1">
    <line x1="0" y1="0" x2="0" y2="440"/><line x1="80" y1="0" x2="80" y2="440"/><line x1="160" y1="0" x2="160" y2="440"/><line x1="240" y1="0" x2="240" y2="440"/><line x1="320" y1="0" x2="320" y2="440"/><line x1="400" y1="0" x2="400" y2="440"/><line x1="480" y1="0" x2="480" y2="440"/><line x1="560" y1="0" x2="560" y2="440"/><line x1="640" y1="0" x2="640" y2="440"/>
    <line x1="0" y1="0" x2="640" y2="0"/><line x1="0" y1="80" x2="640" y2="80"/><line x1="0" y1="160" x2="640" y2="160"/><line x1="0" y1="240" x2="640" y2="240"/><line x1="0" y1="320" x2="640" y2="320"/><line x1="0" y1="400" x2="640" y2="400"/>
  </g>
  <circle cx="320" cy="185" r="118" fill="#fff" opacity="0.10"/>
  <g transform="translate(260,125) scale(1.0)"><g fill="none" stroke="#fff" stroke-width="4.5" stroke-linecap="round" stroke-linejoin="round"><path d="M22 44v42M98 64v22M22 78h76"/><path d="M34 64v-8a6 6 0 0 1 6-6h16a6 6 0 0 1 6 6v8"/><rect x="70" y="56" width="24" height="14" rx="4"/></g></g>
  <rect x="24" y="24" width="135.60000000000002" height="30" rx="15" fill="#000" opacity="0.16"/>
  <text x="40" y="44" font-family="Segoe UI, Helvetica, Arial, sans-serif" font-size="15" font-weight="600" fill="#fff">Care Equipment</text>
  <text x="592" y="46" text-anchor="end" font-family="Segoe UI, Helvetica, Arial, sans-serif" font-size="14" font-weight="700" letter-spacing="2" fill="#fff" opacity="0.75">GRANVILLE</text>
  <text x="40" y="392" font-family="Segoe UI, Helvetica, Arial, sans-serif" font-size="34" font-weight="700" fill="#fff">Profiling Care Bed</text>
  <text x="40" y="418" font-family="Segoe UI, Helvetica, Arial, sans-serif" font-size="15" font-weight="500" fill="#fff" opacity="0.8">Granville Community Homes</text>
</svg>